<svg width="71" height="82" viewBox="0 0 71 82" fill="none" xmlns="http://www.w3.org/2000/svg">
<g id="logo" opacity="0.2" clip-path="url(#clip0_768_3400)">
<path id="Vector" d="M66.6288 21.9018C63.2661 19.185 58.8996 18.0575 54.1161 17.8034L53.3516 1.73052C53.3046 0.762397 52.4951 0 51.5118 0H43.94L50.2464 1.38361C51.0887 1.56917 51.6876 2.30534 51.6876 3.15648V17.7469C42.4171 17.7812 32.0017 20.5081 24.385 21.1273C22.2222 21.3935 20.0512 21.5468 17.8802 21.5912V3.15648C17.8802 2.30534 18.4792 1.56715 19.3214 1.38361L25.6278 0H18.056C17.0728 0 16.2632 0.762397 16.2162 1.73052L15.2718 21.5952C13.708 21.5649 12.1441 21.4802 10.5823 21.337C8.13132 21.1616 5.67825 20.6029 3.52364 19.4068C0.485925 17.3435 1.50599 13.7715 4.16962 11.9402C5.05068 11.3069 6.09936 10.5868 8.14359 9.98175C8.14359 9.98175 7.12148 9.98175 6.85368 10.0402C4.46399 10.3851 3.90796 10.724 2.68551 11.5549C-2.43936 15.5989 0.171114 21.6799 7.21551 22.3636C9.88527 22.6238 12.553 22.769 15.2146 22.8094L14.4623 38.6261C14.3355 41.2985 14.6667 43.981 15.5212 46.5223C18.8635 56.4638 27.9112 59.9671 30.953 60.8828C31.6052 61.0785 32.1367 61.5464 32.4065 62.1636L33.2794 64.1704C33.4593 64.5819 34.0807 64.4568 34.0807 64.007V58.8921C34.0807 58.2366 33.6494 57.6517 33.0116 57.4641C17.2077 52.8111 17.8823 37.184 17.8823 37.184V22.8134C22.3816 22.761 26.8544 22.3999 31.2638 21.7465C34.0623 21.3814 34.2892 22.4947 34.2647 22.7912C34.0807 25.0139 34.5815 65.5621 34.786 75.1283L36.1944 22.9304C36.1944 22.9304 36.1535 21.4661 37.7767 20.7662C37.9566 20.6876 38.1467 20.6331 38.3388 20.5928C38.9787 20.4536 40.7203 20.0785 41.0127 20.0442C44.5492 19.546 48.1123 19.1043 51.6897 19.0398V37.188C51.6897 37.188 52.3642 52.8151 36.5604 57.4682C35.9226 57.6558 35.4912 58.2407 35.4912 58.8962V64.0111C35.4912 64.4588 36.1147 64.5859 36.2926 64.1744L37.1654 62.1676C37.4332 61.5504 37.9668 61.0825 38.6189 60.8869C41.6627 59.9692 50.7105 56.4658 54.0507 46.5264C54.9052 43.9871 55.2364 41.3046 55.1096 38.6301L54.1775 19.0398C55.8231 19.0539 56.9351 19.1709 58.7341 19.4573C59.5272 19.5843 60.8478 20.1531 61.4754 20.6372C65.3512 23.6222 59.102 30.6471 63.6381 34.2413C65.7437 36.0081 69.3538 35.2982 70.4761 32.7649C72.1115 28.8924 69.7095 24.3745 66.6329 21.9018H66.6288Z" fill="white"/>
<path id="Vector_2" d="M21.4035 81.9998H49.8959L37.6019 79.9143L37.1522 77.6392C37.0602 77.1814 36.4878 77.0362 36.1444 77.3569C35.5393 77.9256 34.6521 78.2988 33.8119 77.3569C33.4992 77.0079 32.9227 77.1995 32.7673 77.6392L31.9681 79.9143L21.4035 81.9998Z" fill="white"/>
</g>
<defs>
<clipPath id="clip0_768_3400">
<rect width="71" height="82" fill="white"/>
</clipPath>
</defs>
</svg>
