<svg width="20" height="20" viewBox="0 0 20 20" fill="none" xmlns="http://www.w3.org/2000/svg">
<g id="add">
<path id="Vector" d="M14.9998 10.8346H10.8332V15.0013C10.8332 15.4596 10.4582 15.8346 9.99984 15.8346C9.5415 15.8346 9.1665 15.4596 9.1665 15.0013V10.8346H4.99984C4.5415 10.8346 4.1665 10.4596 4.1665 10.0013C4.1665 9.54297 4.5415 9.16797 4.99984 9.16797H9.1665V5.0013C9.1665 4.54297 9.5415 4.16797 9.99984 4.16797C10.4582 4.16797 10.8332 4.54297 10.8332 5.0013V9.16797H14.9998C15.4582 9.16797 15.8332 9.54297 15.8332 10.0013C15.8332 10.4596 15.4582 10.8346 14.9998 10.8346Z" fill="#161616"/>
</g>
</svg>
