<svg width="13" height="13" viewBox="0 0 13 13" fill="none" xmlns="http://www.w3.org/2000/svg">
<g id="icons/system/navigation bar/information">
<path id="Information" fill-rule="evenodd" clip-rule="evenodd" d="M6.49996 1.39258C3.67934 1.39258 1.39282 3.67909 1.39282 6.49972C1.39282 9.32035 3.67934 11.6069 6.49996 11.6069C9.32059 11.6069 11.6071 9.32035 11.6071 6.49972C11.6071 3.67909 9.32059 1.39258 6.49996 1.39258ZM6.49996 1.85686C9.06417 1.85686 11.1428 3.93549 11.1428 6.49972C11.1428 9.06392 9.06417 11.1426 6.49996 11.1426C3.93574 11.1426 1.85711 9.06392 1.85711 6.49972C1.85711 3.93549 3.93574 1.85686 6.49996 1.85686ZM6.96425 9.05329H7.42854V9.28543H5.57139V9.05329H6.03568V5.57115H5.57139V5.33901H6.96425V9.05329ZM6.96425 4.10869C6.96425 4.42925 6.70444 4.68905 6.38389 4.68905C6.06335 4.68905 5.80354 4.42925 5.80354 4.10869C5.80354 3.78814 6.06335 3.52834 6.38389 3.52834C6.70444 3.52834 6.96425 3.78814 6.96425 4.10869Z" fill="#B1B1B1"/>
</g>
</svg>
