<svg width="24" height="24" viewBox="0 0 24 24" fill="none" xmlns="http://www.w3.org/2000/svg">
<g id="trash" opacity="0.8" clip-path="url(#clip0_1044_3100)">
<path id="Vector" d="M12 24C18.6274 24 24 18.6274 24 12C24 5.37258 18.6274 0 12 0C5.37258 0 0 5.37258 0 12C0 18.6274 5.37258 24 12 24Z" fill="#D9D9D9" fill-opacity="0.3"/>
<path id="Icon" d="M6 7.8H7.4M7.4 7.8H18.6M7.4 7.8L7.4 17.6C7.4 17.9713 7.5475 18.3274 7.81005 18.5899C8.0726 18.8525 8.4287 19 8.8 19H15.8C16.1713 19 16.5274 18.8525 16.7899 18.5899C17.0525 18.3274 17.2 17.9713 17.2 17.6V7.8M9.5 7.8V6.4C9.5 6.0287 9.6475 5.6726 9.91005 5.41005C10.1726 5.1475 10.5287 5 10.9 5H13.7C14.0713 5 14.4274 5.1475 14.6899 5.41005C14.9525 5.6726 15.1 6.0287 15.1 6.4V7.8M10.9 11.3V15.5M13.7 11.3V15.5" stroke="#9E9E9E" stroke-width="1.5" stroke-linecap="round" stroke-linejoin="round"/>
</g>
<defs>
<clipPath id="clip0_1044_3100">
<rect width="24" height="24" fill="white"/>
</clipPath>
</defs>
</svg>
